<svg id="图层_1" data-name="图层 1" xmlns="http://www.w3.org/2000/svg" viewBox="0 0 560 206"><defs><style>.cls-1{fill:#3b3b3b;}.cls-2{fill:#434343;}</style></defs><path class="cls-1" d="M145,301.33c3.81.66,7.62,1.37,11.44,2,16,2.55,31,8.14,44,17.64,7.38,5.38,13.43,12.64,19.85,19.27a54.57,54.57,0,0,1,6.46,8.67c1,1.61,1.51,3.16-1.17,4.61-7.34,4-14.37,8.52-21.59,12.73-7.49,4.37-15,8.8-22.64,12.82-5.71,3-11.7,5.28-18.39,5.31-4.82,0-8.21-2.05-10.87-5.82s-5.69-7.23-10.4-8.65c-3.89-1.18-5.86.19-5.15,4.13.74,4.11-1,5.71-4.39,8-5.25,3.46-9.6,8.37-14,12.93a108.48,108.48,0,0,0-7.76,9.55,4.3,4.3,0,0,0,.4,6.12c2.67,2.75,5.11,5.85,8.21,8a16.43,16.43,0,0,0,8.25,2.66c4.44.22,8.92-.56,13.4-.74A87.28,87.28,0,0,1,171.88,425c12.28,4.08,23.12,11,34.3,17.24,5.74,3.2,11.34,6.65,17,9.9,4.42,2.5,4.94,4.09,2,8.15-9.3,12.82-20.28,23.84-34,32a100.29,100.29,0,0,1-42.66,14.2c-.55.05-1.05.57-1.58.87H122c-.56-.3-1.1-.85-1.67-.88-11.32-.74-22-4.07-32.34-8.4-16.53-6.9-29.91-18-40.64-32.2a95.77,95.77,0,0,1-18.73-44.46c-.39-2.71-1.07-5.37-1.62-8.06v-20c.3-.56.83-1.1.86-1.68.62-10.33,3.74-20,7.85-29.38,8.11-18.47,21-32.59,38.11-43.51a104.69,104.69,0,0,1,35.31-14.48c5.26-1.11,10.58-2,15.87-2.95Z" transform="translate(-27 -301.33)"/><path class="cls-1" d="M519,349.44c-2.71,1.07-2,3.42-2,5.48q0,53.74,0,107.49c0,12.33-.12,24.66.07,37,.06,3.46-1,4.69-4.46,4.65-13.16-.14-26.33,0-39.49-.07-5,0-5-.14-5-5q0-32.25,0-64.49c0-4.91.5-5.31,5-3.35a42.22,42.22,0,0,0,21.33,3.26,14.78,14.78,0,0,0,10-4.85c4.35-4.83,4.45-11.33-3.72-14.19a19.84,19.84,0,0,0-6.85-1c-7.56.16-14.18-2.58-20.61-6.13-3.65-2-5.34-4.73-5.26-9.2.28-15,0-30,.18-45,0-3.15-.91-3.87-3.93-3.85-20.16.13-40.33.07-60.49.06-5.65,0-5.65,0-5.66-5.79q0-17,0-34c0-5.75-.64-5.15,5-5.15q34,0,68,0H587v2a24.87,24.87,0,0,0-1,4.64c-.08,10.49,0,21,0,31.47,0,4.86,0,4.89-5,4.89-19,0-38,0-56.94.05A25.35,25.35,0,0,0,519,349.44Z" transform="translate(-27 -301.33)"/><path class="cls-2" d="M519,349.44a25.35,25.35,0,0,1,5.06-1.06c19-.07,38,0,56.94-.05,4.93,0,5,0,5-4.89,0-10.49,0-21,0-31.47a24.87,24.87,0,0,1,1-4.64v42c-12.66.09-25.32.22-38,.25C539,349.6,529,349.49,519,349.44Z" transform="translate(-27 -301.33)"/><path class="cls-1" d="M334.81,305.34c7.83,0,15.67.2,23.49-.1,3.16-.12,4.39,1.3,5.46,3.8,7.3,17,14.72,34,22,51,6.78,15.85,13.42,31.76,20.16,47.62,2.95,6.94,6,13.83,9,20.76q11,25.55,21.9,51.1c2.71,6.31,5.59,12.56,8.18,18.92,2,4.81,1.45,5.53-3.68,5.56-14.16.06-28.32,0-42.48.06-3.11,0-4.69-1.31-5.87-4.18-7.19-17.53-14.56-35-21.87-52.48Q360.54,422.07,350,396.74c-5.08-12.14-10.22-24.25-15.28-36.39-4.05-9.72-12.33-14.24-21.66-17-5.51-1.62-11.32-2.28-17-3-2.52-.33-2.67-1.35-1.93-3.22.95-2.44,1.91-4.89,2.93-7.3,2.95-7,6.06-13.89,8.85-20.94,1.07-2.72,2.54-3.69,5.48-3.61C319.14,305.48,327,305.34,334.81,305.34Z" transform="translate(-27 -301.33)"/><path class="cls-1" d="M324.32,473.17c-10.82,0-21.65.13-32.47-.08-3.23-.06-4.79,1.23-5.91,4-3.09,7.62-6.45,15.13-9.45,22.78-1.14,2.92-2.86,4.18-5.93,4.16-14.49-.05-29,0-43.46,0-3.67,0-4.26-.68-2.92-4.1,2.88-7.36,6-14.61,9.14-21.87,5.78-13.46,11.74-26.85,17.31-40.39,1.37-3.3,3-4.42,6.55-4.39,19.48.18,39,.11,58.43.06a8.44,8.44,0,0,1,6.21,2.24c8.61,7.63,17.45,15,26.24,22.43,3.63,3.07,7.48,5.91,11,9.13,1.33,1.22,1.95,3.22,2.9,4.87a25.15,25.15,0,0,1-5.16,1.14C346,473.22,335.14,473.17,324.32,473.17Z" transform="translate(-27 -301.33)"/></svg>